<?xml version="1.0" encoding="UTF-8"?>
<svg version="1.1" xmlns="http://www.w3.org/2000/svg" width="1024" height="1024">
<path d="M0 0 C0.65255264 -0.00175232 1.30510529 -0.00350464 1.97743225 -0.00531006 C4.1387904 -0.00971604 6.30006677 -0.00679158 8.46142578 -0.00341797 C9.9729921 -0.00409218 11.48455832 -0.00506318 12.99612427 -0.00631714 C16.17206855 -0.00779308 19.34798476 -0.00564586 22.52392578 -0.00097656 C26.5593132 0.00467199 30.59463338 0.00147236 34.63001823 -0.00454903 C37.75821417 -0.00819928 40.88639476 -0.00699495 44.01459122 -0.00442123 C45.49986911 -0.00376169 46.98514848 -0.0045457 48.47042465 -0.00690079 C76.32935655 -0.04133006 76.32935655 -0.04133006 83.14848518 6.73630333 C85.1708807 10.23514019 85.0096454 13.66973393 85.03878784 17.60635376 C85.05642158 18.46710502 85.07405531 19.32785629 85.09222341 20.21469092 C85.14675079 23.098489 85.17924917 25.98207751 85.2109375 28.86621094 C85.24358656 30.9325259 85.27702609 32.9988285 85.3112011 35.06511879 C85.68090255 59.20816916 85.67864627 83.35559164 85.66606379 107.50085783 C85.66372925 113.42509086 85.66554556 119.34932258 85.66699098 125.27355559 C85.66980877 137.75337195 85.66662103 150.23318083 85.66119061 162.71299596 C85.6567535 173.23119385 85.65754001 183.74938045 85.66210938 194.26757812 C85.70673601 300.75648522 85.70673601 300.75648522 85.23440313 344.36936617 C85.21171076 346.63994225 85.19427667 348.91049969 85.17847061 351.18113327 C85.14952453 355.22364014 85.09638896 359.26541302 85.0390625 363.30761719 C85.03306408 364.45731617 85.02706566 365.60701515 85.02088547 366.7915535 C85.0014954 367.83250546 84.98210533 368.87345741 84.96212769 369.94595337 C84.94603864 371.27954108 84.94603864 371.27954108 84.92962456 372.64006996 C84.19922173 377.20974177 82.17402891 379.64767656 78.53173828 382.37939453 C74.00472466 385.02015248 70.4253101 385.27801307 65.32568359 385.2746582 C64.2299855 385.27969612 64.2299855 385.27969612 63.1121521 385.28483582 C60.69470523 385.29434222 58.27732769 385.29628901 55.85986328 385.29736328 C54.17698132 385.30057694 52.49409964 385.3039411 50.81121826 385.30744934 C47.28055169 385.31344044 43.74990958 385.31528935 40.21923828 385.31469727 C35.70567039 385.31459584 31.19226052 385.32822765 26.67873001 385.34546947 C23.20077806 385.35661728 19.72286392 385.35861559 16.24489594 385.35808754 C14.58160611 385.35926425 12.91831521 385.36366861 11.25504303 385.37141991 C8.92170848 385.38127256 6.58871167 385.37832074 4.25537109 385.37231445 C3.57459503 385.37793396 2.89381897 385.38355347 2.19241333 385.38934326 C-3.75900382 385.35062647 -8.71330319 384.65035859 -13.28076172 380.69189453 C-17.18186265 376.12203344 -17.76189657 373.26724456 -17.74673462 367.45185852 C-17.75252738 366.66022049 -17.75832013 365.86858245 -17.76428843 365.05295539 C-17.78136108 362.38479082 -17.78417395 359.71679888 -17.78710938 357.04858398 C-17.79640713 355.13226876 -17.80657063 353.21595757 -17.81753349 351.29965115 C-17.8450061 346.05122838 -17.86004188 340.80283267 -17.87295341 335.55435658 C-17.88872721 329.97983112 -17.91569959 324.40535906 -17.94128418 318.83087158 C-17.9887625 308.08098187 -18.02547424 297.33108179 -18.05818343 286.58113801 C-18.08467894 277.94257482 -18.11532102 269.30403545 -18.14886475 260.66549683 C-18.15595492 258.8365948 -18.15595492 258.8365948 -18.16318834 256.97074527 C-18.17273957 254.50828687 -18.18229233 252.04582848 -18.19184661 249.58337009 C-18.30142079 221.12148031 -18.38680611 192.65954034 -18.46032715 164.19753647 C-18.46794091 161.25344574 -18.47565869 158.3093553 -18.48339844 155.36526489 C-18.53745599 134.68570359 -18.57850838 114.00619726 -18.59075165 93.32656479 C-18.59323374 89.73240729 -18.59717932 86.13825376 -18.60137939 82.5440979 C-18.61520048 68.73862346 -18.59002407 54.93437932 -18.46826172 41.12939453 C-18.46177109 40.30836998 -18.45528046 39.48734543 -18.44859314 38.64144135 C-18.41041134 34.08778506 -18.35044005 29.53555488 -18.25118637 24.98280144 C-18.21219467 23.05551259 -18.19030624 21.12790054 -18.16921997 19.20033264 C-17.99264368 12.92485613 -17.74389436 8.87369266 -13.46826172 4.12939453 C-9.17083677 0.35286957 -5.60643804 0.00378034 0 0 Z " fill="#59AD72" transform="translate(639.46826171875,423.87060546875)"/>
<path d="M0 0 C0.65956192 -0.00511093 1.31912384 -0.01022186 1.99867249 -0.01548767 C4.15757577 -0.02927475 6.31615585 -0.0284351 8.47509766 -0.02612305 C9.99053056 -0.03001622 11.50596238 -0.03435216 13.02139282 -0.03910828 C16.19024195 -0.04654729 19.35897961 -0.04629631 22.52783203 -0.04101562 C26.56813785 -0.03522678 30.60798437 -0.05214882 34.64821434 -0.0753603 C37.77626161 -0.09016623 40.90420004 -0.09096002 44.03227615 -0.08785057 C45.52086928 -0.08836043 47.00946904 -0.09353455 48.4980278 -0.10366249 C64.5611583 -0.19954689 64.5611583 -0.19954689 71.01416016 3.2746582 C74.55409565 6.90309208 76.13749149 9.48027084 76.14558792 14.4892168 C76.14942907 15.37838128 76.15327021 16.26754575 76.15722775 17.18365461 C76.15636127 18.16661014 76.15549479 19.14956567 76.15460205 20.16230774 C76.15757317 21.20179461 76.1605443 22.24128148 76.16360545 23.31226796 C76.17232268 26.81837545 76.17380325 30.32444892 76.17529297 33.83056641 C76.17991899 36.33503289 76.18494336 38.83949867 76.19033813 41.34396362 C76.20348468 48.1642116 76.20994787 54.98444832 76.21434879 61.80470681 C76.21710955 66.06184975 76.22134661 70.31899042 76.22585297 74.57613182 C76.23804724 86.35857787 76.24834609 98.14102209 76.25172806 109.92347431 C76.25205741 111.05509354 76.25205741 111.05509354 76.25239341 112.20957376 C76.25272083 113.34393112 76.25272083 113.34393112 76.25305486 114.50120479 C76.25349833 116.0336808 76.25394489 117.56615681 76.25439453 119.09863281 C76.25461596 119.85879702 76.25483739 120.61896124 76.25506553 121.40216073 C76.25901387 133.72064924 76.27646826 146.03907861 76.29975405 158.35754428 C76.32345802 170.99908283 76.33592948 183.64059169 76.33709598 196.28215283 C76.3380133 203.38219401 76.34377994 210.48215814 76.36191559 217.58217812 C76.3789106 224.25928072 76.38057635 230.93621198 76.37177658 237.61333847 C76.3710035 240.06716872 76.37538433 242.52100668 76.38523483 244.97481728 C76.39787366 248.31874058 76.39212121 251.66213868 76.38165283 255.00605774 C76.39373744 256.47045279 76.39373744 256.47045279 76.40606618 257.96443158 C76.37000502 262.87295624 76.28164524 266.33242611 73.01416016 270.2746582 C67.14877976 274.8649559 62.51024765 275.39410649 55.22363281 275.43579102 C54.56115036 275.44075592 53.89866791 275.44572083 53.21611023 275.45083618 C51.03680359 275.46537362 48.8575697 275.4722451 46.67822266 275.4777832 C45.93029827 275.48061058 45.18237389 275.48343796 44.41178513 275.48635101 C40.45502116 275.50130849 36.49829334 275.51056007 32.54150391 275.51489258 C28.46734545 275.52037692 24.39352123 275.54441379 20.31946754 275.57286453 C17.1743576 275.59154239 14.02932743 275.59669921 10.88416672 275.59822845 C9.38274684 275.60124312 7.88132796 275.60923134 6.37996292 275.62241364 C4.27421258 275.63958545 2.16926967 275.63756764 0.06347656 275.63110352 C-1.13167572 275.63474915 -2.326828 275.63839478 -3.55819702 275.64215088 C-8.73804754 275.0867963 -12.5685401 273.31401135 -16.79833984 270.2121582 C-21.6453169 263.70336045 -21.27792077 254.85441934 -21.233078 247.01461792 C-21.23669963 245.54018949 -21.23669963 245.54018949 -21.24039441 244.03597462 C-21.24599366 240.7689496 -21.23739696 237.50212341 -21.22875977 234.23510742 C-21.22983357 231.88211006 -21.23177372 229.52911296 -21.23451233 227.17611694 C-21.23934748 220.80444807 -21.23172181 214.43284955 -21.22155929 208.06118917 C-21.21365057 202.06364517 -21.21439743 196.06610423 -21.21483461 190.06855644 C-21.21533436 178.18591015 -21.20619668 166.30329085 -21.19165039 154.4206543 C-21.17755839 142.90307117 -21.17047997 131.38551179 -21.17114258 119.86791992 C-21.17118253 119.15819144 -21.17122249 118.44846297 -21.17126366 117.71722756 C-21.17130401 117.00869772 -21.17134437 116.30016787 -21.17138594 115.57016742 C-21.17204157 103.10276501 -21.166916 90.63537206 -21.15859413 78.16797256 C-21.15506633 72.86593678 -21.1532316 67.56390442 -21.15270042 62.26186752 C-21.15169495 56.01887809 -21.14558157 49.77591351 -21.13553429 43.53293228 C-21.13261693 41.24322919 -21.13138237 38.95352324 -21.13196182 36.66381836 C-21.13245377 33.53609633 -21.12678447 30.40844356 -21.11955261 27.2807312 C-21.12110121 26.37702754 -21.12264982 25.47332388 -21.12424535 24.54223526 C-21.06705792 9.54190194 -21.06705792 9.54190194 -17.36083984 5.3996582 C-16.89419922 4.84536133 -16.42755859 4.29106445 -15.94677734 3.7199707 C-11.28996469 0.28765859 -5.60388668 0.02182366 0 0 Z " fill="#59AD72" transform="translate(508.98583984375,533.725341796875)"/>
<path d="M0 0 C2.58102575 3.52445607 2.41150084 6.77543976 1.84455872 10.94494629 C1.57353261 12.61558585 1.2926216 14.28464007 1.00392151 15.95231628 C0.77728317 17.32401978 0.77728317 17.32401978 0.54606628 18.72343445 C0.0445428 21.74360186 -0.47000024 24.76138172 -0.9853363 27.77922058 C-1.33885337 29.88274036 -1.69181159 31.98635413 -2.04423523 34.09005737 C-2.78511096 38.50005593 -3.53235982 42.90891418 -4.28416443 47.31706238 C-5.24506862 52.95397444 -6.19081225 58.59330205 -7.13183212 64.23356342 C-7.85858533 68.57983194 -8.59310849 72.92475975 -9.32997894 77.26932335 C-9.68152087 79.34725779 -10.03074594 81.42558561 -10.37757111 83.50431252 C-10.86498343 86.41806007 -11.36277286 89.32985346 -11.86326599 92.24137878 C-12.00366302 93.09308151 -12.14406006 93.94478424 -12.28871155 94.82229614 C-13.21215981 100.11230611 -14.49576621 104.87417421 -16.6884613 109.79093933 C-20.33320606 112.22076917 -21.75122109 111.968268 -25.89549255 111.34172058 C-27.6884613 110.79093933 -27.6884613 110.79093933 -28.9384613 108.85343933 C-29.3097113 107.83250183 -29.3097113 107.83250183 -29.6884613 106.79093933 C-30.2350238 106.54215027 -30.7815863 106.29336121 -31.3447113 106.03703308 C-34.78306264 104.20897629 -37.22089797 101.54751075 -39.9384613 98.79093933 C-40.49275818 98.24437683 -41.04705505 97.69781433 -41.6181488 97.13468933 C-45.6884613 93.04432603 -45.6884613 93.04432603 -45.6884613 90.79093933 C-46.6784613 90.46093933 -47.6684613 90.13093933 -48.6884613 89.79093933 C-50.0326947 88.13305148 -51.36464614 86.46517616 -52.6884613 84.79093933 C-54.33612027 83.43418751 -56.00054315 82.09726543 -57.6884613 80.79093933 C-58.47328888 81.58020813 -59.25811646 82.36947693 -60.06672668 83.18266296 C-67.44839796 90.60480338 -74.83528826 98.02171361 -82.22737694 105.43347931 C-86.02793688 109.2444953 -89.82660641 113.0573572 -93.62107849 116.87443542 C-97.28011554 120.55513597 -100.94395664 124.23098955 -104.61124039 127.9034729 C-106.01248025 129.30842023 -107.41195299 130.71513223 -108.80965805 132.12359619 C-110.76125156 134.08961825 -112.71892317 136.04938276 -114.6782074 138.00773621 C-115.55106636 138.891381 -115.55106636 138.891381 -116.44155884 139.7928772 C-120.46035698 143.79093933 -120.46035698 143.79093933 -122.6884613 143.79093933 C-122.98816833 144.59724792 -122.98816833 144.59724792 -123.29393005 145.41984558 C-125.29544317 148.82297853 -128.06830582 151.1212728 -131.0009613 153.72843933 C-132.14379661 154.75737939 -133.28573564 155.78731587 -134.42674255 156.81828308 C-134.93245789 157.26937439 -135.43817322 157.7204657 -135.95921326 158.18522644 C-138.26416666 160.32551707 -140.46938388 162.56245486 -142.6884613 164.79093933 C-143.21086238 165.31538415 -143.73326345 165.83982897 -144.27149487 166.38016605 C-146.09533445 168.21179898 -147.91864945 170.04395312 -149.7419281 171.87614441 C-156.74603919 178.91286509 -163.75518966 185.94454392 -170.76724529 192.97334766 C-175.0067306 197.22331638 -179.24430825 201.47515326 -183.47776794 205.73112488 C-187.57699228 209.85200237 -191.68101468 213.96804358 -195.78847694 218.08070946 C-197.3543919 219.65032923 -198.91854105 221.22171262 -200.48091698 222.79485512 C-202.65708385 224.98543963 -204.83932681 227.16978703 -207.0231781 229.35270691 C-207.67203476 230.00875412 -208.32089142 230.66480133 -208.9894104 231.34072876 C-213.46035212 235.79093933 -213.46035212 235.79093933 -215.6884613 235.79093933 C-215.9153363 236.36843933 -216.1422113 236.94593933 -216.3759613 237.54093933 C-218.03607769 240.38685314 -220.08034088 241.78935854 -222.6884613 243.79093933 C-224.36983345 245.4427696 -226.03458522 247.1115795 -227.6884613 248.79093933 C-228.53389999 249.64081924 -229.37933868 250.49069916 -230.25039673 251.36633301 C-231.61035515 252.73534004 -231.61035515 252.73534004 -232.99778748 254.13200378 C-238.10603213 259.27276393 -243.21923194 264.40856439 -248.33536816 269.54147053 C-251.42470448 272.64129778 -254.51211974 275.7429921 -257.59544373 278.84880066 C-260.58592675 281.8609425 -263.58120617 284.8682356 -266.57993507 287.87216759 C-267.72160732 289.01754196 -268.8615146 290.16467833 -269.99963951 291.31357765 C-271.58428345 292.91264792 -273.17498247 294.5054424 -274.76731873 296.09684753 C-275.67157089 297.00554092 -276.57582306 297.91423431 -277.50747681 298.85046387 C-279.6884613 300.79093933 -279.6884613 300.79093933 -281.6884613 300.79093933 C-281.9256488 301.35297058 -282.1628363 301.91500183 -282.4072113 302.49406433 C-283.97793827 305.30987975 -285.90317595 307.27049349 -288.1884613 309.54093933 C-288.9825238 310.34015808 -289.7765863 311.13937683 -290.5947113 311.96281433 C-292.6884613 313.79093933 -292.6884613 313.79093933 -294.6884613 313.79093933 C-294.6884613 314.45093933 -294.6884613 315.11093933 -294.6884613 315.79093933 C-296.04393005 317.08781433 -296.04393005 317.08781433 -297.8759613 318.54093933 C-300.27616469 320.52350733 -302.11643382 322.30670108 -304.1259613 324.72843933 C-306.15788339 327.15683402 -307.98883193 328.98752878 -310.37547302 331.00871277 C-314.54009363 334.61111491 -318.41094558 338.4336024 -322.2587738 342.36906433 C-323.66343422 343.79122335 -325.06839081 345.21308989 -326.47361755 346.63468933 C-328.6535465 348.84565456 -330.83102792 351.05887804 -333.00340271 353.27726746 C-335.12341401 355.43966945 -337.25281548 357.59245676 -339.3837738 359.74406433 C-340.02767059 360.40658203 -340.67156738 361.06909973 -341.3349762 361.75169373 C-345.20702412 365.64551149 -349.10407042 369.5549563 -354.8837738 369.93547058 C-358.44594958 369.3225456 -361.59954913 368.72150944 -364.6884613 366.79093933 C-364.6884613 366.13093933 -364.6884613 365.47093933 -364.6884613 364.79093933 C-365.5237738 364.48156433 -365.5237738 364.48156433 -366.3759613 364.16593933 C-370.48249159 361.72421862 -374.24631761 357.40579914 -375.6884613 352.79093933 C-375.4820374 347.93997754 -374.05473428 345.25922058 -370.6884613 341.79093933 C-370.0284613 341.79093933 -369.3684613 341.79093933 -368.6884613 341.79093933 C-368.3172113 340.92468933 -368.3172113 340.92468933 -367.9384613 340.04093933 C-366.50546142 337.46153954 -364.90421454 335.72972341 -362.6884613 333.79093933 C-362.0284613 333.79093933 -361.3684613 333.79093933 -360.6884613 333.79093933 C-360.4512738 333.22923035 -360.2140863 332.66752136 -359.9697113 332.08879089 C-358.39526773 329.26511275 -356.47161585 327.31479091 -354.1884613 325.02531433 C-352.8581488 323.69113464 -352.8581488 323.69113464 -351.5009613 322.33000183 C-350.5728363 321.40961121 -349.6447113 320.48922058 -348.6884613 319.54093933 C-347.2962738 318.13715027 -347.2962738 318.13715027 -345.8759613 316.70500183 C-344.9890863 315.82070496 -344.1022113 314.93640808 -343.1884613 314.02531433 C-341.96643005 312.80666687 -341.96643005 312.80666687 -340.7197113 311.56340027 C-338.6884613 309.79093933 -338.6884613 309.79093933 -336.6884613 309.79093933 C-336.3584613 308.80093933 -336.0284613 307.81093933 -335.6884613 306.79093933 C-335.0284613 306.79093933 -334.3684613 306.79093933 -333.6884613 306.79093933 C-333.4203363 306.15156433 -333.1522113 305.51218933 -332.8759613 304.85343933 C-331.6884613 302.79093933 -331.6884613 302.79093933 -328.6884613 301.79093933 C-328.3584613 300.80093933 -328.0284613 299.81093933 -327.6884613 298.79093933 C-327.0284613 298.79093933 -326.3684613 298.79093933 -325.6884613 298.79093933 C-325.4203363 298.15156433 -325.1522113 297.51218933 -324.8759613 296.85343933 C-323.6884613 294.79093933 -323.6884613 294.79093933 -320.6884613 293.79093933 C-320.6884613 293.13093933 -320.6884613 292.47093933 -320.6884613 291.79093933 C-319.18455505 290.31047058 -319.18455505 290.31047058 -317.1259613 288.60343933 C-311.85827854 284.11615401 -307.00349023 279.41561679 -302.5634613 274.10343933 C-300.18113678 271.25981589 -297.59599315 269.10205439 -294.6884613 266.79093933 C-293.49468338 265.33904726 -292.30196319 263.88617293 -291.1259613 262.41984558 C-288.90780373 259.90633551 -286.35239691 257.822258 -283.8056488 255.65031433 C-280.26076288 252.53709348 -276.99297523 249.15481578 -273.6884613 245.79093933 C-272.02187456 244.12419275 -270.35519218 242.45754179 -268.6884613 240.79093933 C-266.58084264 238.6752439 -264.47519751 236.55758683 -262.36936951 234.44010925 C-256.16352135 228.2016842 -249.95266305 221.9682724 -243.73888874 215.73774242 C-239.98367669 211.97204436 -236.23037695 208.20447851 -232.48118591 204.43278503 C-228.84879987 200.77874387 -225.21161634 197.12954331 -221.57098961 193.48371315 C-220.18370335 192.09272301 -218.7981826 190.69996981 -217.41443825 189.30545616 C-215.48733398 187.36393125 -213.55416092 185.42865685 -211.61936951 183.49479675 C-211.04531876 182.91355545 -210.47126801 182.33231415 -209.87982178 181.73345947 C-205.91657111 177.79093933 -205.91657111 177.79093933 -203.6884613 177.79093933 C-203.6884613 177.13093933 -203.6884613 176.47093933 -203.6884613 175.79093933 C-201.8134613 173.66593933 -201.8134613 173.66593933 -199.6884613 171.79093933 C-199.0284613 171.79093933 -198.3684613 171.79093933 -197.6884613 171.79093933 C-197.6884613 171.13093933 -197.6884613 170.47093933 -197.6884613 169.79093933 C-196.30911421 168.60405927 -194.92562127 167.41984153 -193.48924255 166.30265808 C-191.07630404 164.27704593 -188.90324143 162.02757322 -186.6884613 159.79093933 C-185.90105812 158.99617943 -185.90105812 158.99617943 -185.0977478 158.18536377 C-183.93131833 157.00734867 -182.76518622 155.82903909 -181.5993042 154.65048218 C-178.9377446 151.96216719 -176.27087245 149.27914854 -173.60374451 146.59635925 C-172.19474586 145.17721804 -170.78753502 143.75629969 -169.38206482 142.33366394 C-167.3495188 140.27699134 -165.31069773 138.22672939 -163.27049255 136.17765808 C-162.64028702 135.53712997 -162.01008148 134.89660187 -161.36077881 134.23666382 C-159.84083244 132.71632451 -158.26919154 131.24797759 -156.6884613 129.79093933 C-156.0284613 129.79093933 -155.3684613 129.79093933 -154.6884613 129.79093933 C-154.43322693 129.21118347 -154.17799255 128.63142761 -153.9150238 128.03410339 C-152.56261354 125.56078621 -151.05113607 123.89491824 -149.0634613 121.90031433 C-148.35705505 121.19132996 -147.6506488 120.48234558 -146.9228363 119.75187683 C-146.18549255 119.02226746 -145.4481488 118.29265808 -144.6884613 117.54093933 C-143.95111755 116.79586121 -143.2137738 116.05078308 -142.4540863 115.28312683 C-141.74768005 114.57929871 -141.0412738 113.87547058 -140.3134613 113.15031433 C-139.66635193 112.50546082 -139.01924255 111.8606073 -138.3525238 111.19621277 C-136.6884613 109.79093933 -136.6884613 109.79093933 -134.6884613 109.79093933 C-134.6884613 109.13093933 -134.6884613 108.47093933 -134.6884613 107.79093933 C-133.27876282 106.40371704 -133.27876282 106.40371704 -131.29344177 104.76921082 C-126.25902028 100.48513898 -121.64935213 95.84165984 -117.0087738 91.13859558 C-115.17557018 89.29276363 -113.34223304 87.44706426 -111.5087738 85.60148621 C-108.64237523 82.71126307 -105.77856428 79.8184941 -102.91697693 76.92350769 C-100.14028024 74.11502229 -97.35574529 71.31437314 -94.5712738 68.51359558 C-93.70986786 67.63873001 -92.84846191 66.76386444 -91.96095276 65.86248779 C-90.76863541 64.66510231 -90.76863541 64.66510231 -89.55223083 63.44352722 C-88.8524411 62.73628006 -88.15265137 62.0290329 -87.43165588 61.300354 C-85.6884613 59.79093933 -85.6884613 59.79093933 -83.6884613 59.79093933 C-82.77648683 58.04917594 -82.77648683 58.04917594 -82.6884613 55.79093933 C-84.54881828 53.35717003 -84.54881828 53.35717003 -87.1884613 51.04093933 C-90.22919164 48.15119698 -93.18945117 45.32584125 -95.8759613 42.10343933 C-98.24915113 39.29353661 -100.7704203 36.71681503 -103.41893005 34.16984558 C-104.09737976 33.51266541 -104.77582947 32.85548523 -105.47483826 32.1783905 C-106.84694456 30.85632478 -108.22937093 29.54487105 -109.62278748 28.24528503 C-112.58458933 25.38224732 -114.45668857 23.46068262 -115.8212738 19.51750183 C-115.6884613 16.79093933 -115.6884613 16.79093933 -114.64624023 15.21459961 C-111.76526353 13.11960715 -108.67417522 12.80314597 -105.23118591 12.28581238 C-104.48047538 12.16358905 -103.72976484 12.04136572 -102.9563055 11.91543865 C-100.53569372 11.52629054 -98.1127209 11.15662418 -95.6884613 10.79093933 C-94.52165266 10.61144934 -94.52165266 10.61144934 -93.33127213 10.42833328 C-87.5606525 9.54243432 -81.78378065 8.70279452 -76.00486755 7.87297058 C-74.16981524 7.60824934 -72.33476794 7.34349337 -70.49972534 7.07870483 C-66.68898585 6.52964843 -62.87791339 5.98297106 -59.06663513 5.43766785 C-54.2053256 4.74164669 -49.34537924 4.03654075 -44.48568821 3.32931995 C-40.71066567 2.78150846 -36.9347515 2.24004887 -33.15856743 1.70030785 C-31.36624542 1.44306834 -29.57424946 1.18354538 -27.78260994 0.92159462 C-3.63468612 -2.60269869 -3.63468612 -2.60269869 0 0 Z " fill="#59AD72" transform="translate(719.6884613037109,260.2090606689453)"/>
<path d="M0 0 C0.78113159 -0.00686325 1.56226318 -0.0137265 2.36706543 -0.02079773 C4.9409418 -0.03905094 7.51420776 -0.03523041 10.08813477 -0.02954102 C11.88265684 -0.0341036 13.67717716 -0.03940941 15.47169495 -0.04542542 C19.23006291 -0.05435365 22.98821836 -0.05193676 26.74658203 -0.04199219 C31.55634758 -0.03050406 36.36537879 -0.05071286 41.17504787 -0.07990932 C44.88032164 -0.0982801 48.58541972 -0.09797711 52.29072762 -0.0922718 C54.0637013 -0.09211869 55.83668697 -0.09815485 57.60961723 -0.11056328 C60.0917721 -0.12548805 62.57257416 -0.11478627 65.0546875 -0.09765625 C65.78267044 -0.10732422 66.51065338 -0.11699219 67.26069641 -0.12695312 C72.33659343 -0.05382192 75.23752737 1.12950677 79.09204102 4.40405273 C81.86462423 8.21332553 82.46805368 10.8669344 82.47299194 15.54563904 C82.48145142 16.78072205 82.48991089 18.01580505 82.49862671 19.28831482 C82.49279432 20.6490797 82.48664985 22.00984326 82.48022461 23.37060547 C82.48429166 24.80986936 82.48963429 26.24913014 82.49615479 27.68838501 C82.50981968 31.5913379 82.50453291 35.49405261 82.49501753 39.39700961 C82.48741516 43.48481809 82.49446828 47.57260636 82.49917603 51.66041565 C82.50463252 58.52592626 82.49744542 65.39134003 82.4831543 72.25683594 C82.46683445 80.18840377 82.47211181 88.11974017 82.48863351 96.05130237 C82.50225919 102.86589804 82.50416257 109.68042414 82.49631751 116.49502903 C82.49164609 120.56295727 82.49100135 124.63077683 82.50092697 128.69869804 C82.50960991 132.524529 82.50355072 136.35006245 82.4862442 140.17586136 C82.48228613 141.57787775 82.48340178 142.97991928 82.4900322 144.38192558 C82.49826404 146.29976873 82.48609775 148.21766676 82.47299194 150.13548279 C82.47186087 151.20748649 82.47072979 152.27949018 82.46956444 153.38397884 C82.02311987 156.95540114 80.94816547 159.33290562 79.09204102 162.40405273 C73.63900044 166.60743818 69.856057 167.52917597 63.06958008 167.56518555 C62.0031427 167.5726329 62.0031427 167.5726329 60.91516113 167.58023071 C58.5626529 167.59483686 56.21021215 167.6016526 53.85766602 167.60717773 C52.21962482 167.61293154 50.58158365 167.61868924 48.94354248 167.62445068 C45.5070362 167.63495701 42.07055328 167.64080173 38.6340332 167.64428711 C34.24146254 167.64976362 29.84920313 167.673775 25.45672989 167.70225906 C22.07142247 167.72093285 18.68618922 167.72609361 15.30083466 167.72762299 C13.68219048 167.73064059 12.06354733 167.73863888 10.44495392 167.75180817 C8.17375923 167.7689644 5.90331421 167.76696526 3.63208008 167.76049805 C2.34207092 167.76414368 1.05206177 167.76778931 -0.27703857 167.77154541 C-6.99257471 167.09185264 -11.42800178 164.54282718 -15.90795898 159.40405273 C-18.07706367 155.06584337 -17.32166971 149.30138192 -17.46264648 144.53686523 C-17.48358242 143.85162907 -17.50451836 143.1663929 -17.52608871 142.460392 C-18.14264713 121.70657749 -18.05915184 100.94074896 -18.03833008 80.17993164 C-18.03257237 74.3843881 -18.03596691 68.58889028 -18.04190254 62.79334831 C-18.0455308 58.26518412 -18.04436022 53.73703065 -18.04177475 49.20886612 C-18.04111492 47.07130045 -18.04190028 44.93373376 -18.0442543 42.79616928 C-18.07363765 8.71322247 -18.07363765 8.71322247 -12.90795898 3.40405273 C-8.72661435 0.24954754 -5.07354814 -0.03128644 0 0 Z " fill="#59AC72" transform="translate(369.907958984375,641.595947265625)"/>
<path d="M0 0 C0.99 0.495 0.99 0.495 2 1 C-8.99016441 12.03690781 -19.98606755 23.06806788 -30.98881054 34.09243488 C-36.0975656 39.2114977 -41.20443372 44.33241662 -46.30688477 49.45776367 C-50.7547505 53.92557856 -55.20613363 58.38985371 -59.66175634 62.84993333 C-62.02033533 65.21111711 -64.37657727 67.57452354 -66.72969627 69.94115639 C-69.35838033 72.58433619 -71.99323444 75.22121313 -74.62963867 77.85668945 C-75.40647507 78.6407164 -76.18331146 79.42474335 -76.98368835 80.23252869 C-77.70576477 80.95185577 -78.42784119 81.67118286 -79.17179871 82.41230774 C-79.79400897 83.03636159 -80.41621923 83.66041544 -81.05728436 84.30338001 C-83.22504696 86.19653889 -85.49774408 87.58793813 -88 89 C-86.43278408 84.93473689 -83.51463723 82.53794987 -80.3125 79.75 C-76.12921811 76.02407038 -72.32720576 72.23512413 -68.72900391 67.93031311 C-67.12378861 66.13820141 -65.49885914 64.65104982 -63.65234375 63.11499023 C-57.21637002 57.55261955 -51.31121761 51.43416365 -45.3125 45.41015625 C-44.00135899 44.09714694 -42.68999463 42.78436063 -41.37841797 41.4717865 C-37.95022763 38.03980344 -34.52505278 34.60482651 -31.1005249 31.16918945 C-27.59619796 27.65457813 -24.08898917 24.14284511 -20.58203125 20.63085938 C-13.71855143 13.75669956 -6.85825799 6.87936931 0 0 Z " fill="#3F7D50" transform="translate(514,438)"/>
<path d="M0 0 C0.99 0.495 0.99 0.495 2 1 C0.84032094 2.36015549 -0.3282477 3.71273149 -1.5 5.0625 C-2.1496875 5.81660156 -2.799375 6.57070313 -3.46875 7.34765625 C-5.46906148 9.44366164 -7.44639617 11.27985065 -9.6418457 13.15332031 C-14.04466548 16.98349595 -18.16087878 21.05035473 -22.26171875 25.19921875 C-23.01540237 25.956689 -23.769086 26.71415924 -24.54560852 27.49458313 C-26.92870518 29.88978652 -29.30850696 32.28822116 -31.6875 34.6875 C-34.83432815 37.86098274 -37.98449461 41.03109681 -41.13671875 44.19921875 C-41.85139816 44.9221965 -42.56607758 45.64517426 -43.30241394 46.39006042 C-46.72453918 49.82894413 -50.14366027 53.04082985 -54 56 C-55.68997323 57.64302953 -57.35216394 59.31471312 -59 61 C-60.60281465 62.60551754 -62.20707763 64.20959002 -63.8125 65.8125 C-64.60269531 66.60269531 -65.39289062 67.39289063 -66.20703125 68.20703125 C-66.79871094 68.79871094 -67.39039063 69.39039063 -68 70 C-68 67 -68 67 -66.47119141 65.09887695 C-65.77171387 64.40238037 -65.07223633 63.70588379 -64.3515625 62.98828125 C-63.21460938 61.85229492 -63.21460938 61.85229492 -62.0546875 60.69335938 C-61.25289062 59.90767578 -60.45109375 59.12199219 -59.625 58.3125 C-58.43390625 57.11657227 -58.43390625 57.11657227 -57.21875 55.89648438 C-51.26678117 50 -51.26678117 50 -49 50 C-49 49.34 -49 48.68 -49 48 C-47.59277344 46.61277771 -47.59277344 46.61277771 -45.609375 44.97827148 C-40.5631899 40.68407153 -35.91906597 36.04488985 -31.25 31.34765625 C-30.35128174 30.44752304 -29.45256348 29.54738983 -28.52661133 28.61997986 C-26.16413425 26.25288737 -23.80384888 23.88365361 -21.44464111 21.51330566 C-19.02614819 19.08449258 -16.60474054 16.65858897 -14.18359375 14.23242188 C-9.45307046 9.49092631 -4.72542027 4.74658102 0 0 Z " fill="#3E7A4E" transform="translate(634,320)"/>
<path d="M0 0 C0 3 0 3 -1.57299805 4.91357422 C-2.29527588 5.6201416 -3.01755371 6.32670898 -3.76171875 7.0546875 C-4.55126953 7.83457031 -5.34082031 8.61445313 -6.15429688 9.41796875 C-6.99025391 10.22878906 -7.82621094 11.03960937 -8.6875 11.875 C-9.91243164 13.07962891 -9.91243164 13.07962891 -11.16210938 14.30859375 C-12.74653431 15.86607704 -14.3340903 17.42038273 -15.92504883 18.97119141 C-17.52382552 20.53441465 -19.10548684 22.11515582 -20.6796875 23.703125 C-22.98546248 25.98560933 -25.35510696 28.17249781 -27.7578125 30.3515625 C-33.90928824 35.89952549 -33.90928824 35.89952549 -39.5 42 C-41.81045784 44.77254941 -44.1019346 46.86906956 -47 49 C-47.66 48.67 -48.32 48.34 -49 48 C-48.43152344 47.5153125 -47.86304688 47.030625 -47.27734375 46.53125 C-42.72378245 42.57824186 -38.63840181 38.54692187 -34.75390625 33.94140625 C-32.32406962 31.2518098 -29.5980792 28.98726247 -26.8359375 26.6484375 C-24.77897599 24.88108802 -24.77897599 24.88108802 -22.5 22 C-20.52522864 19.63027436 -18.75775665 17.84745638 -16.4375 15.875 C-10.624517 10.93229085 -5.35086326 5.43112621 0 0 Z " fill="#60B87A" transform="translate(603,353)"/>
<path d="M0 0 C0.66 0.33 1.32 0.66 2 1 C1.30994873 1.68860107 0.61989746 2.37720215 -0.09106445 3.08666992 C-2.66486793 5.66036046 -5.2254421 8.24691283 -7.78422546 10.83552551 C-10.26257929 13.34067096 -12.7462858 15.8404815 -15.23022461 18.34008789 C-16.54221668 19.66222634 -17.85242117 20.98614091 -19.16088867 22.31176758 C-21.05443769 24.22944426 -22.95425812 26.14070408 -24.85546875 28.05078125 C-25.44192673 28.6475618 -26.0283847 29.24434235 -26.63261414 29.85920715 C-28.05094989 31.27793655 -29.52104029 32.64458583 -31 34 C-31.66 34 -32.32 34 -33 34 C-33.226875 34.5775 -33.45375 35.155 -33.6875 35.75 C-35.33038023 38.5663661 -37.39533227 40.08077114 -40 42 C-40.33 41.34 -40.66 40.68 -41 40 C-39.60026042 38.86067708 -38.20052083 37.72135417 -36.80078125 36.58203125 C-34.42559115 34.49536749 -32.22870313 32.24023789 -30 30 C-28.89311706 28.89252755 -27.78592005 27.78536894 -26.6784668 26.6784668 C-26.07822189 26.07822189 -25.47797699 25.47797699 -24.85954285 24.85954285 C-16.57302856 16.57302856 -8.28651428 8.28651428 0 0 Z " fill="#417F52" transform="translate(563,390)"/>
<path d="M0 0 C0.66 0.33 1.32 0.66 2 1 C-7.14581963 10.86298922 -16.41605181 20.56150802 -26 30 C-26.66 29.67 -27.32 29.34 -28 29 C-18.85418037 19.13701078 -9.58394819 9.43849198 0 0 Z " fill="#60B678" transform="translate(375,578)"/>
<path d="M0 0 C0.66 0.33 1.32 0.66 2 1 C-7.47859116 12.03729282 -7.47859116 12.03729282 -13 15 C-13.66 15 -14.32 15 -15 15 C-15 15.66 -15 16.32 -15 17 C-15.99 17.33 -16.98 17.66 -18 18 C-17.1875 16.0625 -17.1875 16.0625 -16 14 C-15.01 13.67 -14.02 13.34 -13 13 C-12.67 12.01 -12.34 11.02 -12 10 C-11.34 10 -10.68 10 -10 10 C-9.731875 9.360625 -9.46375 8.72125 -9.1875 8.0625 C-8 6 -8 6 -5 5 C-5 4.34 -5 3.68 -5 3 C-2.625 1.3125 -2.625 1.3125 0 0 Z " fill="#55A46B" transform="translate(404,549)"/>
<path d="M0 0 C0.66 0.33 1.32 0.66 2 1 C1.13375 1.86882813 0.2675 2.73765625 -0.625 3.6328125 C-1.75078108 4.79611962 -2.87573833 5.9602244 -4 7.125 C-4.57234375 7.69476562 -5.1446875 8.26453125 -5.734375 8.8515625 C-8.47150741 11.71903454 -9.88493453 13.23073164 -10.484375 17.23828125 C-9.51833999 22.74623894 -5.47215198 26.78381545 -2 31 C-6.89469549 29.18714982 -9.50738442 25.1710772 -12.375 21 C-13.31519992 17.99136027 -12.86033527 16.01117345 -12 13 C-10.0625 10.125 -10.0625 10.125 -8 8 C-7.34 8 -6.68 8 -6 8 C-5.7525 7.4225 -5.505 6.845 -5.25 6.25 C-3.83316683 3.6997003 -2.12372463 1.98214299 0 0 Z " fill="#458155" transform="translate(357,594)"/>
<path d="M0 0 C-1.58956284 3.81316478 -4.00760697 6.372784 -6.875 9.3125 C-7.73867188 10.21613281 -8.60234375 11.11976563 -9.4921875 12.05078125 C-12 14 -12 14 -14.3203125 13.79296875 C-14.87460937 13.53128906 -15.42890625 13.26960937 -16 13 C-15.29875 12.319375 -14.5975 11.63875 -13.875 10.9375 C-11.17764168 8.25551124 -8.74955877 5.38732727 -6.33203125 2.453125 C-4.21055405 0.13878624 -3.18157643 0 0 0 Z " fill="#519E67" transform="translate(428,527)"/>
<path d="M0 0 C0 3 0 3 -1.57299805 4.9453125 C-2.29527588 5.66460937 -3.01755371 6.38390625 -3.76171875 7.125 C-4.55126953 7.91390625 -5.34082031 8.7028125 -6.15429688 9.515625 C-6.99025391 10.33546875 -7.82621094 11.1553125 -8.6875 12 C-9.50412109 12.81984375 -10.32074219 13.6396875 -11.16210938 14.484375 C-14.92910227 18.21781573 -18.34454613 21.39903928 -23 24 C-21.43282528 19.93484376 -18.51481038 17.53772119 -15.3125 14.75 C-10.97501742 10.89056282 -6.99598518 6.96028045 -3.3046875 2.4609375 C-2 1 -2 1 0 0 Z " fill="#408053" transform="translate(449,503)"/>
<path d="M0 0 C0.99 0.33 1.98 0.66 3 1 C2.48050781 1.44730469 1.96101562 1.89460938 1.42578125 2.35546875 C-2.52711587 5.78228714 -6.34353056 9.25434838 -10 13 C-11.60280778 14.6055244 -13.2070835 16.20958414 -14.8125 17.8125 C-15.60269531 18.60269531 -16.39289062 19.39289063 -17.20703125 20.20703125 C-17.79871094 20.79871094 -18.39039063 21.39039063 -19 22 C-19 19 -19 19 -17.47119141 17.09887695 C-16.77171387 16.40238037 -16.07223633 15.70588379 -15.3515625 14.98828125 C-14.21460938 13.85229492 -14.21460938 13.85229492 -13.0546875 12.69335938 C-12.25289062 11.90767578 -11.45109375 11.12199219 -10.625 10.3125 C-9.8309375 9.51521484 -9.036875 8.71792969 -8.21875 7.89648438 C-2.26678117 2 -2.26678117 2 0 2 C0 1.34 0 0.68 0 0 Z " fill="#478759" transform="translate(585,368)"/>
<path d="M0 0 C1.21236328 0.01353516 1.21236328 0.01353516 2.44921875 0.02734375 C3.37154297 0.04474609 3.37154297 0.04474609 4.3125 0.0625 C2.68836398 2.01350616 1.87456818 2.99032782 -0.6953125 3.3203125 C-1.39398437 3.27648437 -2.09265625 3.23265625 -2.8125 3.1875 C-4.09125 3.14625 -5.37 3.105 -6.6875 3.0625 C-7.8907876 4.09033606 -7.8907876 4.09033606 -8.1875 6.1875 C-7.39489136 10.74499966 -4.05294755 13.08339209 -0.6875 16.0625 C-1.0175 16.7225 -1.3475 17.3825 -1.6875 18.0625 C-9.25406739 11.27154886 -9.25406739 11.27154886 -10.875 6.75 C-10.6875 4.0625 -10.6875 4.0625 -9.4375 2.25 C-6.31791314 0.13313749 -3.65281893 -0.0529394 0 0 Z " fill="#40794F" transform="translate(614.6875,272.9375)"/>
<path d="M0 0 C0.66 0.33 1.32 0.66 2 1 C0.78258021 2.46815389 -0.44948761 3.92416847 -1.6875 5.375 C-2.37199219 6.18710937 -3.05648437 6.99921875 -3.76171875 7.8359375 C-6.09861313 10.09534323 -7.9302743 11.02155853 -11 12 C-7.49102731 7.81576108 -3.91939465 3.80411834 0 0 Z " fill="#458556" transform="translate(634,320)"/>
<path d="M0 0 C0.99 0.99 1.98 1.98 3 3 C2.34 5.31 1.68 7.62 1 10 C0.67 10 0.34 10 0 10 C0 6.7 0 3.4 0 0 Z " fill="#549E68" transform="translate(449,648)"/>
<path d="M0 0 C0.66 0 1.32 0 2 0 C1.1875 1.9375 1.1875 1.9375 0 4 C-0.99 4.33 -1.98 4.66 -3 5 C-3 5.66 -3 6.32 -3 7 C-3.99 7.33 -4.98 7.66 -6 8 C-5.1875 6.0625 -5.1875 6.0625 -4 4 C-3.01 3.67 -2.02 3.34 -1 3 C-0.67 2.01 -0.34 1.02 0 0 Z " fill="#468A59" transform="translate(392,559)"/>
<path d="M0 0 C0.78375 0.04125 1.5675 0.0825 2.375 0.125 C1.570625 0.888125 0.76625 1.65125 -0.0625 2.4375 C-2.79299024 4.91930898 -2.79299024 4.91930898 -3.625 8.125 C-4.625 7.125 -4.625 7.125 -4.8125 4.6875 C-4.54653904 1.05270021 -3.63803315 0.17323967 0 0 Z " fill="#67BF81" transform="translate(610.625,274.875)"/>
<path d="M0 0 C0.66 0.33 1.32 0.66 2 1 C-0.475 4.465 -0.475 4.465 -3 8 C-3.66 7.67 -4.32 7.34 -5 7 C-3.47793991 4.37098712 -2.15634036 2.15634036 0 0 Z " fill="#63BB7C" transform="translate(359,645)"/>
<path d="M0 0 C2.31 0 4.62 0 7 0 C7 0.33 7 0.66 7 1 C4.69 1 2.38 1 0 1 C0 0.67 0 0.34 0 0 Z " fill="#6ABB82" transform="translate(429,640)"/>
<path d="M0 0 C0.66 0.66 1.32 1.32 2 2 C1.34 2 0.68 2 0 2 C0 1.34 0 0.68 0 0 Z " fill="#63A976" transform="translate(489,802)"/>
<path d="M0 0 C3 1 3 1 3 1 Z " fill="#6CBD86" transform="translate(401,640)"/>
<path d="M0 0 C3 1 3 1 3 1 Z " fill="#6CBE84" transform="translate(385,640)"/>
<path d="" fill="#6AB37D" transform="translate(0,0)"/>
<path d="M0 0 C2 1 2 1 2 1 Z " fill="#6CBF85" transform="translate(426,640)"/>
<path d="M0 0 C2 1 2 1 2 1 Z " fill="#6EBF85" transform="translate(410,640)"/>
<path d="M0 0 C2 1 2 1 2 1 Z " fill="#6BBC84" transform="translate(405,640)"/>
<path d="M0 0 C2 1 2 1 2 1 Z " fill="#6BBC83" transform="translate(369,640)"/>
<path d="M0 0 C2 1 2 1 2 1 Z " fill="#69B27E" transform="translate(639,267)"/>
<path d="M0 0 C2 1 2 1 2 1 Z " fill="#66B481" transform="translate(661,264)"/>
<path d="" fill="#49624D" transform="translate(0,0)"/>
<path d="" fill="#64AA75" transform="translate(0,0)"/>
<path d="" fill="#62A472" transform="translate(0,0)"/>
<path d="" fill="#68B47E" transform="translate(0,0)"/>
<path d="" fill="#6DB47F" transform="translate(0,0)"/>
<path d="" fill="#6CB77F" transform="translate(0,0)"/>
<path d="" fill="#6BB37F" transform="translate(0,0)"/>
<path d="" fill="#6DB57E" transform="translate(0,0)"/>
<path d="" fill="#6CB57E" transform="translate(0,0)"/>
<path d="" fill="#6DB580" transform="translate(0,0)"/>
<path d="" fill="#6CB880" transform="translate(0,0)"/>
<path d="" fill="#6EB780" transform="translate(0,0)"/>
<path d="" fill="#6CB77F" transform="translate(0,0)"/>
<path d="" fill="#6FBB84" transform="translate(0,0)"/>
<path d="" fill="#6ABC83" transform="translate(0,0)"/>
<path d="" fill="#6EC085" transform="translate(0,0)"/>
<path d="" fill="#6DC086" transform="translate(0,0)"/>
<path d="" fill="#6EBE84" transform="translate(0,0)"/>
<path d="" fill="#6EC085" transform="translate(0,0)"/>
<path d="" fill="#6EC087" transform="translate(0,0)"/>
<path d="" fill="#6ABC83" transform="translate(0,0)"/>
<path d="" fill="#6DBC84" transform="translate(0,0)"/>
<path d="" fill="#6BBE84" transform="translate(0,0)"/>
<path d="" fill="#68AD79" transform="translate(0,0)"/>
<path d="" fill="#66AE7A" transform="translate(0,0)"/>
<path d="" fill="#67AB7B" transform="translate(0,0)"/>
<path d="" fill="#65A977" transform="translate(0,0)"/>
<path d="" fill="#6AAC7B" transform="translate(0,0)"/>
<path d="" fill="#6AB57E" transform="translate(0,0)"/>
<path d="" fill="#6BB480" transform="translate(0,0)"/>
<path d="" fill="#69AE7B" transform="translate(0,0)"/>
<path d="" fill="#6CB680" transform="translate(0,0)"/>
<path d="" fill="#69B27E" transform="translate(0,0)"/>
<path d="" fill="#69B17C" transform="translate(0,0)"/>
<path d="" fill="#6AB47F" transform="translate(0,0)"/>
<path d="" fill="#66B27D" transform="translate(0,0)"/>
<path d="" fill="#64B07E" transform="translate(0,0)"/>
<path d="" fill="#6BB47F" transform="translate(0,0)"/>
<path d="" fill="#6AB67F" transform="translate(0,0)"/>
<path d="" fill="#68B77E" transform="translate(0,0)"/>
<path d="" fill="#6AB681" transform="translate(0,0)"/>
<path d="" fill="#6AB67F" transform="translate(0,0)"/>
<path d="" fill="#68B27E" transform="translate(0,0)"/>
<path d="" fill="#67B17C" transform="translate(0,0)"/>
<path d="" fill="#68B27F" transform="translate(0,0)"/>
<path d="" fill="#6AB281" transform="translate(0,0)"/>
<path d="" fill="#69B47D" transform="translate(0,0)"/>
<path d="" fill="#68B17E" transform="translate(0,0)"/>
<path d="" fill="#65BB82" transform="translate(0,0)"/>
<path d="" fill="#68B27B" transform="translate(0,0)"/>
<path d="" fill="#66B17B" transform="translate(0,0)"/>
<path d="" fill="#63B57D" transform="translate(0,0)"/>
<path d="" fill="#67B47F" transform="translate(0,0)"/>
<path d="" fill="#69B27C" transform="translate(0,0)"/>
<path d="" fill="#68B47F" transform="translate(0,0)"/>
<path d="" fill="#66AF7A" transform="translate(0,0)"/>
<path d="" fill="#65A276" transform="translate(0,0)"/>
<path d="" fill="#69B17E" transform="translate(0,0)"/>
<path d="" fill="#66A87D" transform="translate(0,0)"/>
<path d="" fill="#69B582" transform="translate(0,0)"/>
<path d="" fill="#66A979" transform="translate(0,0)"/>
<path d="" fill="#65AA7A" transform="translate(0,0)"/>
</svg>
